<svg xmlns="http://www.w3.org/2000/svg" viewBox="0 0 356.3 80.3" fill="none">
  <g transform="translate(0 0.0) scale(1.2540)">
    <g fill="none" stroke-width="4.6" stroke-linecap="round" stroke-linejoin="round">
      <path d="M15 47 L32 38 L49 47" stroke="#8AA07F"/>
      <path d="M15 37 L32 28 L49 37" stroke="#C4D0BD"/>
      <path d="M15 27 L32 18 L49 27" stroke="#F1EDE3"/>
    </g></g>
  <g transform="translate(107.5 9.7)"><path d="M27.36 60.80Q19.04 60.80 12.92 57.40Q6.80 54 3.40 48.12Q0 42.24 0 34.80Q0 28.96 2.32 23.84Q4.64 18.72 8.64 14.80Q12.64 10.88 17.80 8.64Q22.96 6.40 28.64 6.40Q32.72 6.40 35.56 6.92Q38.40 7.44 40.60 8.28Q42.80 9.12 45.04 10.24L45.76 24.80L44.32 24.80L37.84 13.52Q35.44 11.92 33.44 11.16Q31.44 10.40 28.80 10.40Q23.60 10.40 19.44 13.28Q15.28 16.16 12.88 21.36Q10.48 26.56 10.48 33.36Q10.48 40.64 12.80 45.84Q15.12 51.04 19.08 53.84Q23.04 56.64 27.92 56.64Q31.52 56.64 34.12 55.68Q36.72 54.72 38.88 53.36L45.12 43.52L46.48 43.52L45.44 56.72Q42.08 58.56 37.80 59.68Q33.52 60.80 27.36 60.80M74.56 60.80Q69.04 60.80 64.88 58.28Q60.72 55.76 58.40 51.44Q56.08 47.12 56.08 41.84Q56.08 36.56 58.40 32.28Q60.72 28 64.88 25.44Q69.04 22.88 74.56 22.88Q80.08 22.88 84.24 25.44Q88.40 28 90.72 32.28Q93.04 36.56 93.04 41.84Q93.04 47.12 90.72 51.44Q88.40 55.76 84.24 58.28Q80.08 60.80 74.56 60.80M75.52 57.04Q78.24 57.04 79.96 55.12Q81.68 53.20 82.48 50.08Q83.28 46.96 83.28 43.44Q83.28 39.12 82.32 35.28Q81.36 31.44 79.24 29Q77.12 26.56 73.76 26.56Q71.04 26.56 69.28 28.48Q67.52 30.40 66.68 33.52Q65.84 36.64 65.84 40.16Q65.84 44.48 66.84 48.36Q67.84 52.24 70 54.64Q72.16 57.04 75.52 57.04M118.56 60L99.36 60L99.36 58.72L104.56 56.16L104.56 9.12L99.60 5.20L99.60 4.40L113.04 0L113.84 0L113.84 28.80L114.16 28.80Q117.12 25.92 119.88 24.40Q122.64 22.88 126.16 22.88Q130.96 22.88 134.04 25.32Q137.12 27.76 137.12 32.56L137.12 56.16L142.32 58.72L142.32 60L123.12 60L123.12 58.72L127.84 56.32L127.84 36Q127.84 32.96 125.96 31.32Q124.08 29.68 121.20 29.68Q119.36 29.68 117.28 30.32Q115.20 30.96 113.84 32.08L113.84 56.32L118.56 58.72L118.56 60M166.32 60.80Q160.80 60.80 156.64 58.28Q152.48 55.76 150.16 51.44Q147.84 47.12 147.84 41.84Q147.84 36.56 150.16 32.28Q152.48 28 156.64 25.44Q160.80 22.88 166.32 22.88Q171.84 22.88 176 25.44Q180.16 28 182.48 32.28Q184.80 36.56 184.80 41.84Q184.80 47.12 182.48 51.44Q180.16 55.76 176 58.28Q171.84 60.80 166.32 60.80M167.28 57.04Q170 57.04 171.72 55.12Q173.44 53.20 174.24 50.08Q175.04 46.96 175.04 43.44Q175.04 39.12 174.08 35.28Q173.12 31.44 171 29Q168.88 26.56 165.52 26.56Q162.80 26.56 161.04 28.48Q159.28 30.40 158.44 33.52Q157.60 36.64 157.60 40.16Q157.60 44.48 158.60 48.36Q159.60 52.24 161.76 54.64Q163.92 57.04 167.28 57.04M211.92 60L191.36 60L191.36 58.72L196.56 56.16L196.56 32.32L191.60 28.40L191.60 27.60L204.24 22.88L204.96 22.88L205.76 30.32L206.08 30.32Q208.88 26.32 211.28 24.68Q213.68 23.04 216.08 23.04Q218.08 23.04 219.24 23.96Q220.40 24.88 220.40 26.56Q220.40 27.04 220.08 28.24L219.12 32L211.28 30.24Q208.08 31.36 205.76 34.32L205.76 56.16L211.92 58.72L211.92 60M238.40 60.80Q234.08 60.80 231.16 58.72Q228.24 56.64 228.24 52.88L228.24 27.36L222.16 27.36L222.16 26.56L229.36 23.68L236.40 14.88L237.52 14.88L237.52 23.68L248.40 23.68L248.40 27.36L237.52 27.36L237.52 51.12Q237.52 53.12 239.32 54.12Q241.12 55.12 243.52 55.12Q245.04 55.12 246.28 54.96Q247.52 54.80 248.56 54.56L248.80 54.64L248.80 55.76Q247.68 57.68 244.92 59.24Q242.16 60.80 238.40 60.80" fill="#F1EDE3"/></g>
</svg>
